<svg width="165" height="165" viewBox="0 0 165 165" fill="none" xmlns="http://www.w3.org/2000/svg">
<rect width="164.22" height="164.22" rx="20" fill="url(#paint0_linear_25_2)"/>
<path d="M82.0001 32V42M46.6501 46.65L53.7001 53.7M122 82H132M117.35 46.65L110.3 53.7M101.735 85.25C102.35 81.5225 101.897 77.6969 100.429 74.2162C98.9597 70.7355 96.5349 67.7421 93.4351 65.5824C90.3353 63.4227 86.6872 62.1852 82.9132 62.0131C79.1391 61.841 75.3936 62.7414 72.1101 64.61M37.0001 122C34.7528 119.001 33.2086 115.534 32.4817 111.858C31.7549 108.181 31.864 104.388 32.801 100.759C33.738 97.1303 35.4789 93.7586 37.8949 90.8934C40.3109 88.0282 43.3402 85.7429 46.7586 84.2065C50.1771 82.6701 53.8972 81.922 57.6439 82.0175C61.3905 82.1129 65.0677 83.0495 68.4035 84.758C71.7393 86.4665 74.6483 88.9031 76.9152 91.8876C79.1822 94.8721 80.7491 98.3282 81.5001 102H87.0001C90.0423 101.996 93.0141 102.916 95.5209 104.64C98.0277 106.364 99.9512 108.809 101.036 111.651C102.121 114.493 102.316 117.598 101.595 120.554C100.874 123.51 99.2716 126.176 97.0001 128.2M77.0001 122V132M57.0001 117V127" stroke="white" stroke-width="8" stroke-linecap="round" stroke-linejoin="round"/>
<defs>
<linearGradient id="paint0_linear_25_2" x1="164.22" y1="164.22" x2="0" y2="0" gradientUnits="userSpaceOnUse">
<stop stop-color="#FCC2D7"/>
<stop offset="1" stop-color="#006CCF"/>
</linearGradient>
</defs>
</svg>
