<svg width="165" height="165" viewBox="0 0 165 165" fill="none" xmlns="http://www.w3.org/2000/svg">
<rect width="164.22" height="164.22" rx="20" fill="url(#paint0_linear_25_2)"/>
<path d="M81.5001 28.5833V39.1667M44.088 44.0879L51.5492 51.5492M123.833 81.5H134.417M118.912 44.0879L111.451 51.5492M102.386 84.9396C103.038 80.9946 102.558 76.9459 101.004 73.2622C99.449 69.5784 96.8828 66.4103 93.6022 64.1247C90.3215 61.839 86.4606 60.5293 82.4664 60.3472C78.4723 60.1651 74.5082 61.118 71.0331 63.0956M33.8751 123.833C31.4967 120.659 29.8624 116.991 29.0932 113.099C28.3239 109.208 28.4394 105.194 29.431 101.353C30.4227 97.5129 32.2651 93.9445 34.8221 90.9122C37.379 87.8799 40.585 85.4612 44.2029 83.8352C47.8207 82.2092 51.7579 81.4174 55.7231 81.5185C59.6883 81.6195 63.58 82.6108 67.1104 84.4189C70.6407 86.2271 73.7194 88.8058 76.1186 91.9644C78.5178 95.123 80.1761 98.7806 80.9709 102.667H86.7917C90.0115 102.662 93.1565 103.636 95.8096 105.461C98.4627 107.285 100.498 109.873 101.646 112.881C102.795 115.889 103.001 119.175 102.238 122.303C101.475 125.431 99.7791 128.253 97.3751 130.395M76.2084 123.833V134.417M55.0417 118.542V129.125" stroke="white" stroke-width="8" stroke-linecap="round" stroke-linejoin="round"/>
<defs>
<linearGradient id="paint0_linear_25_2" x1="164.22" y1="164.22" x2="0" y2="0" gradientUnits="userSpaceOnUse">
<stop stop-color="#FCC2D7"/>
<stop offset="1" stop-color="#006CCF"/>
</linearGradient>
</defs>
</svg>
